<?xml version="1.0" encoding="UTF-8"?>
<!DOCTYPE svg PUBLIC "-//W3C//DTD SVG 1.1//EN"
  "http://www.w3.org/Graphics/SVG/1.1/DTD/svg11.dtd">
<svg version="1.1" id="Layer_1" xmlns="http://www.w3.org/2000/svg" xmlns:xlink="http://www.w3.org/1999/xlink" x="0px" y="0px"
     width="32px" height="32px" viewBox="0 0 32 32" enable-background="new 0 0 32 32" xml:space="preserve">
  <symbol id="moon" viewBox="0 0 32 32">
    <path
      d="M14.753,3.558c6.236,0.716 11.086,6.02 11.086,12.447c-0,6.915 -5.615,12.53 -12.53,12.53c-2.705,-0 -5.211,-0.86 -7.261,-2.32c0.474,0.054 0.956,0.082 1.444,0.082c6.915,0 12.529,-5.614 12.529,-12.53c0,-4.21 -2.08,-7.938 -5.268,-10.209Z"
      fill="currentColor"/>
  </symbol>
  <symbol id="sun" viewBox="0 0 32 32">
    <path
      d="M18,27.779c0,-0.417 -0.339,-0.756 -0.756,-0.756l-2.488,0c-0.417,0 -0.756,0.339 -0.756,0.756l0,1.511c0,0.417 0.339,0.756 0.756,0.756l2.488,0c0.417,0 0.756,-0.339 0.756,-0.756l0,-1.511Zm5.959,-0.957c0.295,0.295 0.774,0.295 1.069,-0l1.759,-1.76c0.295,-0.295 0.295,-0.773 0,-1.068l-1.068,-1.069c-0.295,-0.295 -0.774,-0.295 -1.069,-0l-1.76,1.759c-0.295,0.295 -0.295,0.774 0,1.069l1.069,1.069Zm-14.849,-1.069c0.295,-0.295 0.295,-0.774 -0,-1.069l-1.76,-1.759c-0.295,-0.295 -0.774,-0.295 -1.069,-0l-1.068,1.069c-0.295,0.295 -0.295,0.773 -0,1.068l1.759,1.76c0.295,0.295 0.774,0.295 1.069,-0l1.069,-1.069Zm6.89,-18.73c4.967,0 9,4.033 9,9c0,4.967 -4.033,9 -9,9c-4.967,0 -9,-4.033 -9,-9c0,-4.967 4.033,-9 9,-9Zm0,2c3.863,0 7,3.137 7,7c-0,3.863 -3.137,7 -7,7c-3.863,0 -7,-3.137 -7,-7c0,-3.863 3.137,-7 7,-7Zm13.256,9.012c0.417,-0 0.756,-0.339 0.756,-0.756l-0,-2.489c-0,-0.417 -0.339,-0.755 -0.756,-0.755l-1.512,-0c-0.417,-0 -0.756,0.338 -0.756,0.755l0,2.489c0,0.417 0.339,0.756 0.756,0.756l1.512,-0Zm-25,-0c0.417,-0 0.756,-0.339 0.756,-0.756l-0,-2.489c-0,-0.417 -0.339,-0.755 -0.756,-0.755l-1.512,-0c-0.417,-0 -0.756,0.338 -0.756,0.755l0,2.489c0,0.417 0.339,0.756 0.756,0.756l1.512,-0Zm2.025,-8.891c0.295,0.295 0.774,0.295 1.069,0l1.76,-1.759c0.295,-0.295 0.295,-0.774 -0,-1.069l-1.069,-1.069c-0.295,-0.295 -0.774,-0.295 -1.069,0l-1.759,1.76c-0.295,0.295 -0.295,0.774 -0,1.069l1.068,1.068Zm20.506,-1.068c0.295,-0.295 0.295,-0.774 0,-1.069l-1.759,-1.76c-0.295,-0.295 -0.774,-0.295 -1.069,0l-1.069,1.069c-0.295,0.295 -0.295,0.774 0,1.069l1.76,1.759c0.295,0.295 0.774,0.295 1.069,0l1.068,-1.068Zm-8.787,-5.297c0,-0.417 -0.339,-0.756 -0.756,-0.756l-2.488,0c-0.417,0 -0.756,0.339 -0.756,0.756l0,1.511c0,0.417 0.339,0.756 0.756,0.756l2.488,0c0.417,0 0.756,-0.339 0.756,-0.756l0,-1.511Z"
      fill="currentColor"/>
  </symbol>
</svg>
